# xmcd
#
# Track frame offsets:
#	150
#	15712
#	35857
#	68662
#	102900
#	115665
#	137270
#	164870
#	178837
#	209890
#	231975
#	244700
#
# Disc length: 3713 seconds
#
# Revision: 4
# Processed by: cddbd v1.5PL3 Copyright (c) Steve Scherf et al.
# Submitted via: CDex 1.50Beta5
#
DISCID=af0e7f0c
DTITLE=Port of Notes - Joint Adventure
DYEAR=2002
DGENRE=New Age
TTITLE0=Salling To Your Love(New Recording 2002)
TTITLE1=Salavah(Shining Mono Track)
TTITLE2=One More Bourbon
TTITLE3=Into The Light(Indian Rope Remix)
TTITLE4=With This Affection
TTITLE5=Hope and Falsity(Dad’s Dat Dub)
TTITLE6=Regret(Y.Sunahara’s Studio’s Remix)
TTITLE7=Mouth to Mouth(DSK.GK Pella)
TTITLE8=I Lost My Guitar(TK Soundscape Mix)
TTITLE9=With This Affection(Acoustic Version)
TTITLE10=With This Affection
TTITLE11=(You are)More Than Paradise(Back To ’90 Remix)
EXTD=
EXTT0=
EXTT1=
EXTT2=
EXTT3=
EXTT4=
EXTT5=
EXTT6=
EXTT7=
EXTT8=
EXTT9=
EXTT10=
EXTT11=
PLAYORDER=
